<svg width="48" height="48" viewBox="0 0 48 48" fill="none" xmlns="http://www.w3.org/2000/svg">
<circle cx="24" cy="24" r="24" fill="#FFCE00"/>
<path d="M12.8951 11.7764C12.8942 11.7764 12.8932 11.7764 12.8924 11.7764C12.5897 11.7764 12.3051 11.8943 12.0901 12.1088C11.8728 12.3255 11.7531 12.6142 11.7531 12.9215V30.0922C11.7531 30.7218 12.2673 31.2353 12.8996 31.237C15.565 31.2433 20.0306 31.7988 23.1112 35.0227V17.053C23.1112 16.8396 23.0567 16.6391 22.9538 16.4732C20.4253 12.4013 15.5665 11.7826 12.8951 11.7764Z" fill="white"/>
<path d="M36.2471 30.0922V12.9214C36.2471 12.6141 36.1274 12.3254 35.91 12.1086C35.6951 11.8942 35.4102 11.7762 35.1079 11.7762C35.1069 11.7762 35.1059 11.7762 35.1051 11.7762C32.4338 11.7826 27.5749 12.4013 25.0464 16.4732C24.9435 16.6391 24.8891 16.8396 24.8891 17.053V35.0226C27.9697 31.7987 32.4353 31.2432 35.1007 31.2368C35.7328 31.2352 36.2471 30.7217 36.2471 30.0922Z" fill="white"/>
<path d="M38.8548 15.7362H38.0245V30.0922C38.0245 31.6998 36.7147 33.0108 35.1045 33.0148C32.8437 33.0201 29.116 33.4622 26.4759 35.9609C31.0419 34.843 35.8553 35.5697 38.5985 36.1948C38.941 36.2728 39.2949 36.1922 39.5694 35.9735C39.8428 35.7553 39.9997 35.4292 39.9997 35.0791V16.8811C39.9998 16.2498 39.4861 15.7362 38.8548 15.7362Z" fill="white"/>
<path d="M9.97517 30.0922V15.7362H9.14489C8.51373 15.7362 8 16.2498 8 16.8811V35.0788C8 35.429 8.15688 35.755 8.43033 35.9732C8.70454 36.1918 9.05816 36.2727 9.40122 36.1945C12.1444 35.5693 16.9579 34.8426 21.5237 35.9606C18.8837 33.462 15.156 33.02 12.8952 33.0146C11.2851 33.0108 9.97517 31.6998 9.97517 30.0922Z" fill="white"/>
</svg>
