<svg width="48" height="48" viewBox="0 0 48 48" fill="none" xmlns="http://www.w3.org/2000/svg">
<circle cx="24" cy="24" r="24" fill="#FFCE00"/>
<g clip-path="url(#clip0)">
<path d="M39.3744 19.0222L24.3119 13.7077C24.1101 13.6365 23.8899 13.6365 23.6881 13.7077L8.62561 19.0222C8.25111 19.1543 8.00049 19.508 7.99999 19.9052C7.99949 20.3023 8.2493 20.6566 8.62349 20.7896L23.686 26.1444C23.7875 26.1805 23.8938 26.1986 24 26.1986C24.1062 26.1986 24.2124 26.1805 24.314 26.1444L39.3765 20.7896C39.7507 20.6566 40.0004 20.3023 40 19.9052C39.9995 19.508 39.7489 19.1543 39.3744 19.0222Z" fill="#FBFDFF"/>
<path d="M37.7485 31.5359V23.3584L35.8735 24.025V31.5359C35.3087 31.861 34.9281 32.47 34.9281 33.1685C34.9281 33.8668 35.3087 34.476 35.8735 34.801V39.4083C35.8735 39.926 36.2932 40.3458 36.811 40.3458C37.3287 40.3458 37.7485 39.926 37.7485 39.4083V34.8011C38.3132 34.4761 38.6938 33.8669 38.6938 33.1685C38.6938 32.4701 38.3133 31.861 37.7485 31.5359Z" fill="#FBFDFF"/>
<path d="M23.9998 28.0736C23.678 28.0736 23.361 28.0189 23.0577 27.9111L14.59 24.9008V29.0263C14.59 30.0356 15.643 30.8891 17.7196 31.5631C19.5297 32.1506 21.76 32.4742 23.9998 32.4742C26.2395 32.4742 28.4698 32.1506 30.28 31.5631C32.3566 30.8891 33.4095 30.0356 33.4095 29.0263V24.9008L24.9419 27.9111C24.6385 28.0189 24.3216 28.0736 23.9998 28.0736Z" fill="#FBFDFF"/>
</g>
<defs>
<clipPath id="clip0">
<rect width="32" height="32" fill="white" transform="translate(8 11)"/>
</clipPath>
</defs>
</svg>
