<svg width="48" height="48" viewBox="0 0 48 48" fill="none" xmlns="http://www.w3.org/2000/svg">
<circle cx="24" cy="24" r="24" fill="#FFCE00"/>
<g clip-path="url(#clip0)">
<path d="M16.6326 17.9057C18.0792 17.4511 18.882 15.9112 18.4279 14.4651C18.0592 13.2935 16.9761 12.5438 15.8098 12.5438C15.5379 12.5438 15.2609 12.5849 14.9869 12.6709C13.5412 13.1254 12.7385 14.6663 13.1936 16.1119C13.5602 17.2835 14.6424 18.0332 15.8075 18.0332C16.0806 18.0332 16.3587 17.9921 16.6326 17.9057Z" fill="white"/>
<path d="M18.1267 18.2402C18.1267 18.2402 15.529 19.0727 15.4902 19.0866C14.5133 19.4397 13.8034 20.2719 13.6372 21.3056L12.671 27.3034C12.553 28.0388 13.0535 28.731 13.7878 28.849C13.8604 28.8612 13.9332 28.8664 14.0048 28.8664C14.6549 28.8664 15.227 28.3949 15.3345 27.7322L15.5327 26.5011L15.7702 28.7419L16.013 31.0315C16.0331 31.217 16.1342 31.384 16.2901 31.4862C16.446 31.5883 16.6399 31.6152 16.818 31.5595L17.6772 31.2893L18.4917 33.8779H14.323C14.2061 33.8779 14.1102 33.7826 14.1102 33.6651V29.6666C14.0751 29.6683 14.0413 29.6761 14.0059 29.6761C13.8911 29.6761 13.7762 29.6666 13.6592 29.6482C12.8265 29.5138 12.1904 28.9158 11.9523 28.1625V33.6651C11.9523 34.9722 13.0154 36.0358 14.3229 36.0358H18.785V34.8103V30.9408V20.8605V18.1294C18.6103 18.1421 18.4356 18.1717 18.2618 18.2174C18.2171 18.2292 18.1713 18.2261 18.1267 18.2402Z" fill="white"/>
<path d="M30.0961 8.00699H15.1892H14.3231C13.0138 8.00699 11.9525 9.06837 11.9525 10.3776V26.6778L12.8386 21.1772C12.9822 20.2826 13.443 19.502 14.1103 18.9468V18.7126C13.1998 18.2619 12.4846 17.4578 12.1642 16.4359C11.8577 15.4618 11.9493 14.4266 12.4203 13.521C12.7984 12.7956 13.3909 12.2334 14.1103 11.8767V10.3776C14.1103 10.2605 14.2061 10.1647 14.3231 10.1647H15.1892H19.3068H24.808L20.9019 10.9459C20.2982 11.0666 19.8642 11.5965 19.8642 12.2124V38.7082C19.8642 39.0953 20.038 39.4621 20.3372 39.7069C20.6365 39.9525 21.0295 40.051 21.4086 39.9747L35.0098 37.2548C35.6137 37.1341 36.0476 36.6041 36.0476 35.9883V9.04473C36.0476 8.46717 35.579 7.99922 35.0015 8L30.0961 8.00699ZM22.5866 27.0452C22.0029 27.0452 21.5297 26.5721 21.5297 25.989C21.5297 25.4053 22.0029 24.9322 22.5866 24.9322C23.1704 24.9322 23.6434 25.4053 23.6434 25.989C23.6434 26.5721 23.1705 27.0452 22.5866 27.0452ZM30.8597 16.1076C30.8597 16.4137 30.6436 16.677 30.3423 16.7366L26.1784 17.5617C25.9897 17.599 25.7949 17.55 25.6464 17.4277C25.4989 17.306 25.4125 17.1244 25.4125 16.9321V15.8153C25.4125 15.5092 25.6285 15.2458 25.9298 15.1863L30.0937 14.3612C30.2824 14.3239 30.4772 14.3729 30.6257 14.4951C30.7732 14.6168 30.8597 14.7985 30.8597 14.9908V16.1076Z" fill="white"/>
</g>
<defs>
<clipPath id="clip0">
<rect width="32" height="32" fill="white" transform="translate(8 8)"/>
</clipPath>
</defs>
</svg>
