<svg width="48" height="48" viewBox="0 0 48 48" fill="none" xmlns="http://www.w3.org/2000/svg">
<circle cx="24" cy="24" r="24" fill="#FFCE00"/>
<g clip-path="url(#clip0)">
<path d="M37.6658 34.2357L35.209 24.9862C34.9587 24.7264 34.6663 24.5133 34.3296 24.3392C32.6267 23.4701 29.8178 22.7463 28.0342 22.0621C27.9017 22.0116 27.7443 21.9092 27.6893 21.7908C27.544 21.4708 27.4454 21.131 27.3418 20.7937C27.2752 20.5774 27.2189 20.3771 26.9821 20.2734C26.9168 20.2453 26.8605 20.1205 26.8611 20.0405C26.8746 19.2591 26.6922 18.4367 27.2746 17.7577C27.2899 17.7372 27.3008 17.7052 27.311 17.6796C27.6246 16.9936 27.6809 16.2147 28.1155 15.576C28.1238 15.5645 28.1296 15.5421 28.1296 15.5216C28.182 15.0339 28.2358 14.5533 28.2761 14.0637C28.28 14.0042 28.2249 13.8974 28.1744 13.8814C27.9318 13.7937 27.9472 13.601 27.9478 13.4071C27.9478 12.4561 27.9478 12.5604 27.9465 11.6114C27.9465 11.0597 27.784 10.5676 27.3667 10.1925C26.8919 9.7676 26.4042 9.35354 25.9165 8.94011C25.6817 8.74108 25.6618 8.58621 25.8794 8.36734C25.9773 8.27198 26.1053 8.19966 26.216 8.11967C26.1898 8.08319 26.168 8.04799 26.1418 8.00831C25.9953 8.00831 25.8436 7.98719 25.7015 8.01279C25.1652 8.10239 24.6212 8.17534 24.0901 8.30014C23.0808 8.53949 22.0978 8.85628 21.2754 9.53337C20.7129 9.99863 20.2643 10.5349 20.208 11.2991C20.1798 11.6971 20.183 12.099 20.1811 12.5003C20.1779 13.1537 20.183 12.7537 20.1696 13.4065C20.1676 13.5121 20.1075 13.6849 20.0339 13.7098C19.7721 13.795 19.7606 13.9652 19.799 14.1847C19.8259 14.3357 19.8041 14.4945 19.8393 14.641C19.9277 15.0487 20.0275 15.4557 20.1452 15.857C20.2329 16.1571 20.4006 16.4381 20.4486 16.742C20.5427 17.3507 20.7686 17.8774 21.1801 18.3381C21.2473 18.413 21.2991 18.5391 21.2908 18.6383C21.2569 19.1061 21.2089 19.5746 21.1481 20.0366C21.1353 20.1301 21.0387 20.2651 20.9599 20.2792C20.6489 20.3451 20.6016 20.5851 20.5286 20.827C20.4313 21.1431 20.3244 21.4631 20.2028 21.7729C20.1625 21.8676 20.0678 21.9713 19.9725 22.0116C19.4189 22.2509 14.3106 24.0736 13.7263 24.384C13.3846 24.5708 13.0633 24.7731 12.7926 25.0278L10.3338 34.2357C10.9123 34.2357 12.7081 34.4258 13.3596 34.7221V27.8731C13.3596 26.4716 14.5007 25.3292 15.9035 25.3292H23.4917L23.7534 23.6461L22.9375 22.8372L23.2702 22.0237H24.73L25.0635 22.8372L24.2475 23.6461L24.5086 25.3292H32.0968C33.499 25.3292 34.6407 26.4703 34.6407 27.8731V34.7221C35.2915 34.4258 37.0867 34.2357 37.6658 34.2357Z" fill="white"/>
<path d="M32.0962 38.6452C32.8559 38.6452 33.4696 38.0302 33.4696 37.2744V27.8731C33.4696 27.1141 32.8546 26.4998 32.0962 26.4998H15.9036C15.1446 26.4998 14.5302 27.1154 14.5302 27.8731V37.2744C14.5302 38.0302 15.1452 38.6452 15.9036 38.6452H13.4877C13.4877 39.7235 13.9542 40 14.5264 40H33.4728C34.045 40 34.5115 39.7223 34.5115 38.6452H32.0962Z" fill="white"/>
</g>
<defs>
<clipPath id="clip0">
<rect width="32" height="32" fill="white" transform="translate(8 8)"/>
</clipPath>
</defs>
</svg>
